<svg width="26" height="26" viewBox="0 0 26 26" fill="none" xmlns="http://www.w3.org/2000/svg">
<path fill-rule="evenodd" clip-rule="evenodd" d="M21.4314 4.24463C21.8089 4.15514 22.0722 4.06717 22.2879 3.97477C22.5901 3.84527 22.8407 3.69013 23.2366 3.42887C23.5693 3.20928 23.9957 3.19016 24.3467 3.37908C24.6977 3.56799 24.9167 3.93441 24.9167 4.33304C24.9167 5.50404 24.7707 6.46381 24.433 7.30845C24.1487 8.01892 23.7494 8.59596 23.2717 9.12117C23.07 12.7646 22.0154 15.6257 20.4031 17.7934C18.7319 20.0401 16.5085 21.4789 14.1647 22.2847C11.8277 23.088 9.35852 23.2675 7.14643 22.9954C4.94884 22.7253 2.91746 21.9977 1.50156 20.8965C1.11381 20.5949 0.977507 20.0701 1.16947 19.6179C1.36144 19.1658 1.83361 18.8994 2.31989 18.9689C3.71303 19.1679 5.05408 18.8512 6.1568 18.3983C5.93972 18.2802 5.73505 18.1524 5.5448 18.0207C4.53998 17.3251 3.72927 16.3807 3.36437 15.6509C3.21336 15.349 3.2118 14.9937 3.36016 14.6905C3.43668 14.534 3.54859 14.4006 3.68446 14.2989C2.21734 13.088 1.62499 11.4133 1.62499 10.2914C1.62499 9.95777 1.77869 9.64277 2.04164 9.43748C2.15221 9.35116 2.2769 9.28827 2.40834 9.2504C2.29855 8.92893 2.21336 8.60413 2.14842 8.2897C1.86051 6.8956 1.88606 5.3221 2.19901 4.0703C2.30609 3.64192 2.66244 3.32142 3.09973 3.26017C3.53701 3.19893 3.96771 3.4092 4.18836 3.79167C5.35567 5.81499 7.50876 7.05174 9.5126 7.78434C10.4547 8.12878 11.3272 8.34826 11.9812 8.4832C12.1224 7.16089 12.4916 6.07042 13.0583 5.20431C13.8059 4.06162 14.8486 3.38554 15.9683 3.08408C17.8996 2.56419 20.0425 3.15649 21.4314 4.24463ZM11.6441 10.6257C10.9019 10.4766 9.88185 10.2263 8.76863 9.81928C7.29831 9.28174 5.59095 8.44355 4.16078 7.14521C4.18638 7.38413 4.22272 7.62102 4.27032 7.85149C4.51 9.01209 4.95538 9.66209 5.35948 9.86414C5.85371 10.1113 6.08274 10.6907 5.89103 11.209C5.63146 11.9107 4.94877 11.9682 4.32847 11.8132C4.82737 12.5611 5.72409 13.3069 7.21976 13.5561C7.73562 13.6422 8.11642 14.0844 8.12485 14.6073C8.13329 15.1302 7.76695 15.5845 7.25412 15.6871L6.31112 15.8757C6.45538 16.001 6.61158 16.124 6.77809 16.2392C7.53309 16.7619 8.29114 16.9874 8.94558 16.8238C9.43574 16.7013 9.94551 16.9338 10.1743 17.3843C10.403 17.8348 10.29 18.3836 9.90186 18.707C9.20428 19.2876 8.38961 19.7536 7.57312 20.1402C7.18981 20.3218 6.76145 20.501 6.29623 20.6587C6.65403 20.7351 7.02635 20.7977 7.41085 20.845C9.32897 21.0809 11.4639 20.9218 13.4603 20.2357C15.4499 19.5517 17.2888 18.3499 18.6646 16.5003C20.0384 14.6532 20.9972 12.0971 21.1258 8.62634C21.1358 8.35308 21.2489 8.09375 21.4423 7.9004C21.9294 7.41328 22.3319 6.85494 22.53 6.19035C22.1834 6.29839 21.7932 6.3919 21.3285 6.48076C20.9758 6.54816 20.6128 6.43655 20.359 6.18273C19.5308 5.35449 17.8928 4.80983 16.5316 5.17626C15.891 5.34872 15.3087 5.72205 14.8714 6.3905C14.4249 7.07298 14.0833 8.13618 14.0833 9.74975C14.0833 10.0563 13.9534 10.3485 13.7259 10.5539C13.1864 11.0409 12.2785 10.7531 11.6441 10.6257Z" fill="white"/>
</svg>
