<svg width="196" height="77" viewBox="0 0 196 77" fill="none" xmlns="http://www.w3.org/2000/svg">
<g clip-path="url(#clip0_145_778)">
<path d="M70.1798 44.8474C69.9289 44.6235 64.4313 39.7792 56.8911 38.2424C64.8766 31.2045 65.8558 21.0531 65.894 20.6198C65.9176 20.3531 65.804 20.0909 65.5835 19.9018C65.3629 19.7129 65.0571 19.6152 64.7458 19.6357C64.2572 19.6672 53.1643 20.4537 45.0079 26.6959C45.4415 24.6208 45.6897 22.4811 45.6897 20.6568C45.6897 14.8363 43.2118 9.6195 41.1329 6.26806C38.8872 2.64761 36.6615 0.412673 36.5679 0.319431C36.3647 0.116583 36.0681 0 35.7562 0C35.4443 0 35.1476 0.116583 34.9442 0.319551C34.8506 0.412914 32.6251 2.64785 30.3794 6.2683C28.3006 9.61974 25.8226 14.8365 25.8226 20.657C25.8226 22.4856 26.0724 24.6314 26.5088 26.7126C18.3505 20.4551 7.23849 19.6674 6.74946 19.6357C6.43855 19.615 6.13227 19.7128 5.91176 19.9018C5.69125 20.0909 5.57769 20.3531 5.60127 20.6198C5.63959 21.0543 6.62439 31.2648 14.6753 38.3049C7.28706 39.9065 1.931 44.6291 1.68677 44.8474C1.2894 45.2024 1.28911 45.763 1.68677 46.1181C2.00975 46.4065 9.70821 53.1854 19.4202 53.1854C19.6028 53.1854 19.7867 53.1829 19.9717 53.1778C18.2868 56.752 18.3464 60.2109 18.3504 60.3754C18.3621 60.8675 18.8248 61.2642 19.3989 61.2742C19.741 61.2804 27.739 61.3706 32.8547 57.1474L32.6624 60.6389C32.6485 60.8895 32.755 61.1341 32.9572 61.3156C33.1592 61.497 33.4392 61.5999 33.732 61.5999H38.8315C39.1243 61.5999 39.4041 61.4971 39.6063 61.3156C39.8084 61.134 39.9148 60.8895 39.9009 60.6389L39.709 57.1544C44.8255 61.3707 52.8145 61.2802 53.1564 61.2741C53.7305 61.2641 54.1932 60.8674 54.2048 60.3753C54.2087 60.2115 54.2683 56.7569 52.5863 53.1847C62.2333 53.1167 69.8585 46.4052 70.1799 46.118C70.5774 45.7632 70.5774 45.2024 70.1798 44.8474ZM52.4379 51.3502C51.9671 51.3502 51.4761 51.3304 50.9788 51.2916C50.5879 51.2602 50.2095 51.4157 49.9913 51.6952C49.7733 51.9746 49.7509 52.3338 49.9331 52.6316C51.4939 55.1838 51.9128 57.9884 52.0241 59.4066C49.7637 59.2775 44.4848 58.6561 41.035 55.6991C40.4315 55.1817 39.8782 54.5855 39.39 53.9274C39.1295 53.5763 38.6265 53.4192 38.1629 53.5448C37.7001 53.6705 37.3937 54.0472 37.4167 54.463L37.7087 59.765H34.8541L35.1469 54.4506C35.1699 54.0348 34.8632 53.6578 34.4001 53.5323C33.9369 53.4069 33.4333 53.5643 33.1732 53.916C32.6823 54.5796 32.1261 55.1794 31.5198 55.699C28.0806 58.647 22.7914 59.2731 20.5291 59.4051C20.6396 57.9771 21.0624 55.1441 22.6624 52.565C22.8509 52.2613 22.8253 51.8927 22.5961 51.6102C22.3672 51.3278 21.9729 51.179 21.5752 51.2244C20.8459 51.3081 20.1208 51.3503 19.4199 51.3503C12.2963 51.3503 6.13003 47.118 4.01318 45.4821C5.89169 44.0267 10.9596 40.5242 17.076 39.7642C17.4906 39.7125 17.832 39.4584 17.9498 39.1139C18.0675 38.7693 17.9401 38.3975 17.6234 38.1623C17.1831 37.8352 16.7621 37.5 16.3722 37.1656C10.2419 31.9112 8.39594 24.4209 7.90059 21.607C11.1839 22.0318 19.9223 23.6139 26.0525 28.8685C26.5715 29.3134 27.0839 29.7967 27.575 30.3048C27.8974 30.6387 28.4481 30.7332 28.896 30.5325C29.3438 30.3316 29.5668 29.8897 29.4309 29.4725C28.5261 26.6955 27.964 23.3176 27.964 20.6571C27.964 12.1728 33.6118 4.87123 35.7562 2.40542C37.901 4.87195 43.5484 12.1734 43.5484 20.6571C43.5484 23.3103 42.9903 26.6771 42.092 29.4442C41.9567 29.8611 42.1794 30.3025 42.6268 30.5032C43.0737 30.7042 43.6241 30.6097 43.9469 30.2769C44.4299 29.779 44.933 29.3051 45.4427 28.8684C51.5728 23.6138 60.3115 22.0316 63.5945 21.6069C63.0989 24.4211 61.2531 31.9112 55.1228 37.1655C54.7468 37.488 54.3419 37.8112 53.9196 38.1267C53.6015 38.3641 53.4759 38.7396 53.5986 39.0856C53.7212 39.4315 54.0695 39.6834 54.4878 39.7291C60.7229 40.4089 65.9378 44.0037 67.8518 45.4829C65.732 47.1197 59.5638 51.3502 52.4379 51.3502Z" fill="#BADAD7"/>
<path d="M53.7353 44.6192H38.8038L54.6353 31.0493C55.0534 30.6908 55.0534 30.1098 54.6353 29.7514C54.217 29.3931 53.5392 29.3931 53.121 29.7514L37.2895 43.3211V15.4627C37.2895 14.9557 36.8102 14.545 36.2188 14.545C35.6275 14.545 35.1481 14.9557 35.1481 15.4627V43.3468L19.2864 29.7514C18.8683 29.3931 18.1903 29.3931 17.7723 29.7514C17.3542 30.1099 17.3542 30.6909 17.7723 31.0493L33.6038 44.6192H16.8528C16.2614 44.6192 15.7821 45.0299 15.7821 45.5369C15.7821 46.0439 16.2614 46.4546 16.8528 46.4546H33.6337L28.8067 50.5921C28.3886 50.9506 28.3886 51.5316 28.8067 51.89C29.0157 52.0692 29.2898 52.1587 29.5637 52.1587C29.8376 52.1587 30.1117 52.0692 30.3207 51.89L35.1477 47.7526V50.2144C35.1477 50.7214 35.6271 51.1322 36.2184 51.1322C36.8098 51.1322 37.2891 50.7214 37.2891 50.2144V47.7783L41.9579 51.7802C42.1671 51.9593 42.4412 52.0488 42.7151 52.0488C42.9889 52.0488 43.2631 51.9592 43.4722 51.7802C43.8904 51.4216 43.8904 50.8407 43.4722 50.4822L38.7732 46.4545H53.7349C54.3264 46.4545 54.8056 46.0438 54.8056 45.5368C54.8056 45.0298 54.3266 44.6192 53.7353 44.6192Z" fill="#BADAD7"/>
</g>
<g clip-path="url(#clip1_145_778)">
<path d="M36.3611 73.8638C36.5459 73.868 36.7297 73.8354 36.9018 73.7679C37.074 73.7005 37.231 73.5995 37.3637 73.4708C37.4533 73.3894 37.5252 73.2904 37.5748 73.18C37.6245 73.0696 37.6509 72.9502 37.6525 72.8291C37.6525 72.6951 37.7057 72.5666 37.8005 72.4718C37.8952 72.3771 38.0238 72.3238 38.1578 72.3238C38.2238 72.3238 38.2891 72.337 38.35 72.3624C38.4108 72.3879 38.466 72.4253 38.5123 72.4723C38.5586 72.5193 38.595 72.5751 38.6195 72.6364C38.6441 72.6976 38.6561 72.7632 38.6551 72.8291C38.6547 73.083 38.6025 73.3341 38.5019 73.5672C38.4012 73.8002 38.2541 74.0103 38.0696 74.1847C37.6128 74.6292 36.9984 74.8744 36.3611 74.8664C36.29 74.8755 36.2177 74.8692 36.1491 74.8482C36.0806 74.8271 36.0173 74.7917 35.9635 74.7442C35.9097 74.6968 35.8666 74.6385 35.8371 74.5731C35.8075 74.5078 35.7923 74.4369 35.7923 74.3651C35.7923 74.2934 35.8075 74.2225 35.8371 74.1571C35.8666 74.0918 35.9097 74.0335 35.9635 73.986C36.0173 73.9386 36.0806 73.9032 36.1491 73.8821C36.2177 73.8611 36.29 73.8548 36.3611 73.8638Z" fill="#BADAD7"/>
<path d="M36.3614 63.9167C36.1464 63.9167 35.875 63.9741 35.6329 64.1647C35.3881 64.3575 35.1975 64.6665 35.1124 65.1227L35.0528 65.403C34.722 66.7841 33.9578 67.8262 33.2218 68.9059C32.444 70.047 31.6993 71.2302 31.6993 72.8454V72.8532C31.7371 74.0546 32.2501 75.1921 33.1251 76.0163C33.9986 76.8389 35.1622 77.2821 36.3614 77.2497C37.5604 77.2819 38.7235 76.8387 39.5968 76.0163C40.4719 75.1921 40.9848 74.0547 41.0226 72.8532V72.8454C41.0226 71.2301 40.2779 70.047 39.5001 68.9059C38.7152 67.7543 37.8987 66.6457 37.6095 65.1227C37.5244 64.6665 37.3338 64.3575 37.089 64.1647C36.847 63.9743 36.5764 63.9167 36.3614 63.9167ZM36.3624 66.2799C36.7459 67.4532 37.3319 68.5531 38.0978 69.527C38.8947 70.6783 39.5196 71.6084 39.5196 72.8454C39.4843 73.645 39.1348 74.3985 38.547 74.942C37.9566 75.4879 37.1737 75.7778 36.3702 75.7477H36.3526C35.5506 75.7737 34.7709 75.4811 34.1837 74.9342C33.5964 74.3872 33.2488 73.6298 33.2179 72.8278C33.221 71.5948 33.8387 70.6654 34.6407 69.5182L34.8155 69.2887C35.4905 68.3745 36.0122 67.3582 36.3624 66.2799Z" fill="#BADAD7" stroke="#BADAD7" stroke-width="0.5"/>
</g>
<path d="M27.2449 65.5532C27.2449 66.6775 26.4324 67.5889 25.4301 67.5889C24.4278 67.5889 24.944 67.3266 24.944 66.2023C24.944 65.0781 25.7565 64.1667 26.7588 64.1667C27.7611 64.1667 27.2449 64.4289 27.2449 65.5532Z" fill="#BADAD7"/>
<path d="M42.9107 65.5532C42.9107 66.6775 43.7232 67.5889 44.7255 67.5889C45.7278 67.5889 45.2115 67.3266 45.2115 66.2023C45.2115 65.0781 44.399 64.1667 43.3967 64.1667C42.3945 64.1667 42.9107 64.4289 42.9107 65.5532Z" fill="#BADAD7"/>
<path d="M121.592 52.3805C119.963 52.3805 118.353 52.0315 116.763 51.3333C115.211 50.5964 113.854 49.8013 112.69 48.948C111.061 47.7069 110.092 47.0864 109.781 47.0864C109.006 47.0864 108.502 47.9202 108.269 49.588L108.036 51.9151H106.698L106.291 33.5309H107.687C107.92 36.401 108.715 39.1548 110.072 41.7922C111.469 44.3908 113.195 46.5046 115.25 48.1336C117.306 49.7237 119.42 50.5188 121.592 50.5188C124.772 50.5188 127.08 49.7431 128.515 48.1917C129.989 46.6403 130.725 44.7786 130.725 42.6067C130.725 40.7062 130.163 39.213 129.038 38.127C127.952 37.041 126.343 36.0714 124.21 35.2181L115.367 31.6692C112.302 30.4281 110.034 28.8379 108.56 26.8987C107.125 24.9206 106.407 22.5547 106.407 19.801C106.407 16.0776 107.493 13.3239 109.665 11.5397C111.837 9.75562 114.552 8.86356 117.81 8.86356C120.37 8.86356 123.201 10.0271 126.304 12.3542C126.692 12.6257 127.08 12.8778 127.467 13.1105C127.855 13.3045 128.204 13.4014 128.515 13.4014C129.174 13.4014 129.562 12.936 129.678 12.0052L129.911 9.91076H131.307L131.889 25.037H130.493C129.872 22.2444 128.883 19.7622 127.526 17.5902C126.207 15.4183 124.656 13.7311 122.871 12.5288C121.087 11.3264 119.245 10.7252 117.345 10.7252C115.173 10.7252 113.388 11.4428 111.992 12.8778C110.596 14.2741 109.898 16.2327 109.898 18.7538C109.898 20.4991 110.344 21.8566 111.236 22.8262C112.128 23.7959 113.447 24.6297 115.192 25.3279L126.42 29.8076C129.019 30.8548 130.958 32.348 132.238 34.2872C133.557 36.2265 134.216 38.2627 134.216 40.3959C134.216 42.4515 133.751 44.3908 132.82 46.2137C131.928 48.0366 130.532 49.5298 128.631 50.6934C126.769 51.8181 124.423 52.3805 121.592 52.3805Z" fill="#393939"/>
<path d="M149.175 16.2521H148.942V44.8174C148.942 46.2525 149.272 47.3966 149.931 48.2499C150.629 49.0644 151.521 49.4716 152.607 49.4716H154.702V51.3333H140.855V49.4716H142.95C144.074 49.4716 144.966 49.0644 145.626 48.2499C146.285 47.3966 146.615 46.2525 146.615 44.8174V13.3432C146.576 12.8002 146.44 12.4124 146.208 12.1797C145.975 11.9082 145.587 11.7724 145.044 11.7724H140.855V9.91076H151.851L172.038 42.374V16.4267C172.038 14.9916 171.709 13.8668 171.049 13.0524C170.39 12.1991 169.517 11.7724 168.431 11.7724H166.337V9.91076H180.183V11.7724H178.089C177.003 11.7724 176.111 12.1991 175.413 13.0524C174.715 13.8668 174.366 14.9916 174.366 16.4267V52.3805H172.038L149.175 16.2521Z" fill="#393939"/>
<path d="M99.5666 68.6087C98.6357 68.6087 97.8281 68.4034 97.1436 67.9927C96.4683 67.5729 95.9436 66.9934 95.5694 66.2542C95.2044 65.5059 95.0219 64.6389 95.0219 63.6533C95.0219 62.6677 95.2044 61.8053 95.5694 61.0661C95.9436 60.3178 96.4683 59.7383 97.1436 59.3276C97.8281 58.9078 98.6357 58.698 99.5666 58.698C100.671 58.698 101.561 58.958 102.236 59.4782C102.92 59.9984 103.358 60.733 103.55 61.6821H102.291C102.145 61.0889 101.848 60.6144 101.401 60.2585C100.954 59.8934 100.342 59.7109 99.5666 59.7109C98.8912 59.7109 98.2981 59.8706 97.787 60.19C97.2851 60.5003 96.8927 60.9521 96.6098 61.5452C96.336 62.1293 96.1991 62.832 96.1991 63.6533C96.1991 64.4747 96.336 65.1819 96.6098 65.7751C96.8927 66.3592 97.2851 66.8109 97.787 67.1303C98.2981 67.4406 98.8912 67.5957 99.5666 67.5957C100.342 67.5957 100.954 67.4223 101.401 67.0756C101.848 66.7196 102.145 66.2497 102.291 65.6656H103.55C103.358 66.5873 102.92 67.3083 102.236 67.8284C101.561 68.3486 100.671 68.6087 99.5666 68.6087Z" fill="#393939"/>
<path d="M105.231 68.4444V58.8622H108.598C109.273 58.8622 109.83 58.9717 110.268 59.1908C110.715 59.4006 111.048 59.6927 111.267 60.0668C111.486 60.4319 111.596 60.8425 111.596 61.2988C111.596 61.7916 111.486 62.2023 111.267 62.5308C111.058 62.8594 110.779 63.1103 110.432 63.2837C110.095 63.4571 109.734 63.5621 109.351 63.5986L109.543 63.4617C109.953 63.4708 110.332 63.5803 110.679 63.7902C111.026 64.0001 111.299 64.283 111.5 64.6389C111.71 64.9948 111.815 65.3918 111.815 65.8299C111.815 66.3135 111.696 66.7561 111.459 67.1577C111.222 67.5501 110.87 67.8649 110.405 68.1022C109.949 68.3304 109.383 68.4444 108.708 68.4444H105.231ZM106.381 67.4862H108.584C109.232 67.4862 109.734 67.3356 110.09 67.0345C110.455 66.7242 110.638 66.2953 110.638 65.7477C110.638 65.2093 110.451 64.7804 110.077 64.461C109.711 64.1324 109.205 63.9682 108.557 63.9682H106.381V67.4862ZM106.381 63.051H108.516C109.137 63.051 109.607 62.905 109.926 62.613C110.254 62.3209 110.419 61.924 110.419 61.422C110.419 60.9384 110.254 60.5505 109.926 60.2585C109.607 59.9665 109.123 59.8204 108.475 59.8204H106.381V63.051Z" fill="#393939"/>
<path d="M113.479 68.4444V58.8622H116.326C117.439 58.8622 118.361 59.0584 119.091 59.4508C119.821 59.8341 120.36 60.3862 120.706 61.1072C121.062 61.819 121.24 62.6769 121.24 63.6807C121.24 64.6663 121.062 65.515 120.706 66.2268C120.36 66.9387 119.821 67.4862 119.091 67.8695C118.361 68.2528 117.439 68.4444 116.326 68.4444H113.479ZM114.629 67.4862H116.299C117.22 67.4862 117.955 67.3356 118.503 67.0345C119.059 66.7242 119.456 66.2862 119.694 65.7204C119.931 65.1454 120.049 64.4655 120.049 63.6807C120.049 62.8776 119.931 62.1886 119.694 61.6137C119.456 61.0388 119.059 60.5961 118.503 60.2859C117.955 59.9756 117.22 59.8204 116.299 59.8204H114.629V67.4862Z" fill="#393939"/>
<path d="M126.566 68.4444V58.8622H129.701C130.449 58.8622 131.065 58.99 131.549 59.2455C132.033 59.4919 132.393 59.825 132.63 60.2448C132.868 60.6646 132.986 61.1391 132.986 61.6684C132.986 62.1977 132.868 62.6769 132.63 63.1058C132.402 63.5256 132.046 63.8632 131.563 64.1188C131.079 64.3652 130.458 64.4884 129.701 64.4884H127.716V68.4444H126.566ZM127.716 63.5164H129.673C130.44 63.5164 130.988 63.3522 131.316 63.0236C131.645 62.686 131.809 62.2342 131.809 61.6684C131.809 61.0844 131.645 60.6326 131.316 60.3132C130.988 59.9847 130.44 59.8204 129.673 59.8204H127.716V63.5164Z" fill="#393939"/>
<path d="M134.507 68.4444V58.8622H137.6C138.349 58.8622 138.96 58.99 139.435 59.2455C139.909 59.4919 140.261 59.825 140.489 60.2448C140.717 60.6646 140.831 61.1391 140.831 61.6684C140.831 62.1795 140.712 62.6495 140.475 63.0784C140.247 63.5073 139.891 63.8495 139.407 64.1051C138.924 64.3606 138.303 64.4884 137.546 64.4884H135.657V68.4444H134.507ZM139.572 68.4444L137.464 64.1598H138.75L140.927 68.4444H139.572ZM135.657 63.5849H137.518C138.248 63.5849 138.782 63.4069 139.12 63.051C139.467 62.6951 139.64 62.2388 139.64 61.6821C139.64 61.1163 139.471 60.6692 139.134 60.3406C138.805 60.003 138.262 59.8341 137.505 59.8341H135.657V63.5849Z" fill="#393939"/>
<path d="M146.919 68.6087C145.997 68.6087 145.185 68.4034 144.482 67.9927C143.789 67.5729 143.241 66.9934 142.84 66.2542C142.447 65.5059 142.251 64.6389 142.251 63.6533C142.251 62.6769 142.447 61.819 142.84 61.0798C143.241 60.3315 143.789 59.7474 144.482 59.3276C145.185 58.9078 145.997 58.698 146.919 58.698C147.859 58.698 148.676 58.9078 149.369 59.3276C150.072 59.7474 150.615 60.3315 150.998 61.0798C151.391 61.819 151.587 62.6769 151.587 63.6533C151.587 64.6389 151.391 65.5059 150.998 66.2542C150.615 66.9934 150.072 67.5729 149.369 67.9927C148.676 68.4034 147.859 68.6087 146.919 68.6087ZM146.919 67.5957C147.613 67.5957 148.22 67.4406 148.74 67.1303C149.269 66.8109 149.68 66.3592 149.972 65.7751C150.264 65.1819 150.41 64.4747 150.41 63.6533C150.41 62.832 150.264 62.1293 149.972 61.5452C149.68 60.9521 149.269 60.5003 148.74 60.19C148.22 59.8798 147.613 59.7246 146.919 59.7246C146.226 59.7246 145.619 59.8798 145.098 60.19C144.578 60.5003 144.168 60.9521 143.866 61.5452C143.574 62.1293 143.428 62.832 143.428 63.6533C143.428 64.4747 143.574 65.1819 143.866 65.7751C144.168 66.3592 144.578 66.8109 145.098 67.1303C145.619 67.4406 146.226 67.5957 146.919 67.5957Z" fill="#393939"/>
<path d="M153.262 68.4444V58.8622H156.109C157.223 58.8622 158.144 59.0584 158.875 59.4508C159.605 59.8341 160.143 60.3862 160.49 61.1072C160.846 61.819 161.024 62.6769 161.024 63.6807C161.024 64.6663 160.846 65.515 160.49 66.2268C160.143 66.9387 159.605 67.4862 158.875 67.8695C158.144 68.2528 157.223 68.4444 156.109 68.4444H153.262ZM154.412 67.4862H156.082C157.004 67.4862 157.738 67.3356 158.286 67.0345C158.843 66.7242 159.24 66.2862 159.477 65.7204C159.714 65.1454 159.833 64.4655 159.833 63.6807C159.833 62.8776 159.714 62.1886 159.477 61.6137C159.24 61.0388 158.843 60.5961 158.286 60.2859C157.738 59.9756 157.004 59.8204 156.082 59.8204H154.412V67.4862Z" fill="#393939"/>
<path d="M166.163 68.6087C165.506 68.6087 164.908 68.4764 164.37 68.2117C163.84 67.9471 163.416 67.5455 163.097 67.0071C162.777 66.4596 162.617 65.7614 162.617 64.9127V58.8622H163.767V64.9264C163.767 65.547 163.868 66.0534 164.068 66.4459C164.278 66.8383 164.566 67.1257 164.931 67.3083C165.296 67.4908 165.716 67.582 166.19 67.582C166.674 67.582 167.094 67.4908 167.45 67.3083C167.806 67.1257 168.084 66.8383 168.285 66.4459C168.485 66.0534 168.586 65.547 168.586 64.9264V58.8622H169.736V64.9127C169.736 65.7614 169.576 66.4596 169.257 67.0071C168.937 67.5455 168.508 67.9471 167.97 68.2117C167.431 68.4764 166.829 68.6087 166.163 68.6087Z" fill="#393939"/>
<path d="M175.858 68.6087C174.927 68.6087 174.12 68.4034 173.435 67.9927C172.76 67.5729 172.235 66.9934 171.861 66.2542C171.496 65.5059 171.313 64.6389 171.313 63.6533C171.313 62.6677 171.496 61.8053 171.861 61.0661C172.235 60.3178 172.76 59.7383 173.435 59.3276C174.12 58.9078 174.927 58.698 175.858 58.698C176.962 58.698 177.852 58.958 178.527 59.4782C179.212 59.9984 179.65 60.733 179.842 61.6821H178.582C178.436 61.0889 178.14 60.6144 177.692 60.2585C177.245 59.8934 176.634 59.7109 175.858 59.7109C175.183 59.7109 174.59 59.8706 174.078 60.19C173.577 60.5003 173.184 60.9521 172.901 61.5452C172.627 62.1293 172.491 62.832 172.491 63.6533C172.491 64.4747 172.627 65.1819 172.901 65.7751C173.184 66.3592 173.577 66.8109 174.078 67.1303C174.59 67.4406 175.183 67.5957 175.858 67.5957C176.634 67.5957 177.245 67.4223 177.692 67.0756C178.14 66.7196 178.436 66.2497 178.582 65.6656H179.842C179.65 66.5873 179.212 67.3083 178.527 67.8284C177.852 68.3486 176.962 68.6087 175.858 68.6087Z" fill="#393939"/>
<path d="M183.526 68.4444V59.8068H180.665V58.8622H187.537V59.8068H184.676V68.4444H183.526Z" fill="#393939"/>
<path d="M191.794 68.6087C191.091 68.6087 190.479 68.4809 189.959 68.2254C189.439 67.9699 189.037 67.614 188.755 67.1577C188.472 66.7014 188.33 66.1721 188.33 65.5698H189.535C189.535 65.9439 189.622 66.2907 189.795 66.6101C189.968 66.9204 190.219 67.1714 190.548 67.363C190.885 67.5455 191.301 67.6368 191.794 67.6368C192.222 67.6368 192.587 67.5684 192.889 67.4315C193.199 67.2854 193.432 67.0892 193.587 66.8428C193.751 66.5964 193.833 66.3181 193.833 66.0078C193.833 65.6337 193.751 65.3325 193.587 65.1044C193.423 64.8671 193.203 64.6754 192.93 64.5294C192.656 64.3834 192.341 64.2556 191.985 64.1461C191.629 64.0275 191.251 63.8997 190.849 63.7628C190.101 63.5073 189.549 63.1925 189.193 62.8183C188.837 62.435 188.659 61.9377 188.659 61.3262C188.659 60.806 188.777 60.3497 189.015 59.9573C189.261 59.5649 189.608 59.2592 190.055 59.0402C190.511 58.812 191.05 58.698 191.67 58.698C192.282 58.698 192.811 58.812 193.258 59.0402C193.715 59.2683 194.07 59.5832 194.326 59.9847C194.581 60.3771 194.709 60.8334 194.709 61.3536H193.505C193.505 61.0889 193.436 60.8289 193.299 60.5733C193.162 60.3178 192.953 60.1079 192.67 59.9436C192.396 59.7702 192.049 59.6836 191.629 59.6836C191.282 59.6744 190.972 59.7337 190.698 59.8615C190.434 59.9801 190.224 60.1535 190.069 60.3817C189.923 60.6098 189.85 60.8882 189.85 61.2167C189.85 61.527 189.914 61.778 190.041 61.9696C190.178 62.1612 190.37 62.3255 190.616 62.4624C190.872 62.5902 191.168 62.7088 191.506 62.8183C191.844 62.9278 192.218 63.051 192.629 63.1879C193.094 63.343 193.505 63.5347 193.861 63.7628C194.226 63.9819 194.508 64.2648 194.709 64.6116C194.919 64.9583 195.024 65.4009 195.024 65.9394C195.024 66.3957 194.901 66.8292 194.655 67.2398C194.417 67.6414 194.061 67.9699 193.587 68.2254C193.112 68.4809 192.514 68.6087 191.794 68.6087Z" fill="#393939"/>
<line x1="82.6333" y1="0.855553" x2="82.6333" y2="76.1444" stroke="#BADAD7"/>
<defs>
<clipPath id="clip0_145_778">
<rect width="71.8667" height="61.6" fill="white"/>
</clipPath>
<clipPath id="clip1_145_778">
<rect width="12.8333" height="12.8333" fill="white" transform="matrix(-1 0 0 1 42.7778 64.1667)"/>
</clipPath>
</defs>
</svg>
