<svg width="285" height="113" viewBox="0 0 285 113" fill="none" xmlns="http://www.w3.org/2000/svg">
<g clip-path="url(#clip0_168_327)">
<path d="M102.363 65.4136C101.997 65.0871 93.9783 58.0213 82.9804 55.7798C94.628 45.5144 96.0562 30.7077 96.1119 30.0758C96.1463 29.6867 95.9806 29.3043 95.659 29.0285C95.3372 28.7529 94.8913 28.6104 94.4371 28.6403C93.7245 28.6863 77.5445 29.8334 65.6478 38.9382C66.2803 35.9116 66.6422 32.7905 66.6422 30.1296C66.6422 21.6399 63.028 14.0308 59.9957 9.1425C56.7202 3.86176 53.4739 0.601919 53.3374 0.465917C53.0409 0.170046 52.6083 0 52.1534 0C51.6985 0 51.2657 0.170046 50.969 0.466092C50.8324 0.60227 47.5864 3.86211 44.3108 9.14285C41.2787 14.0312 37.6643 21.6403 37.6643 30.13C37.6643 32.7972 38.0288 35.927 38.6653 38.9626C26.7657 29.8355 10.5579 28.6866 9.84465 28.6403C9.39116 28.6101 8.94443 28.7528 8.62279 29.0285C8.30116 29.3043 8.13553 29.6867 8.16992 30.0758C8.22581 30.7094 9.66223 45.6023 21.4052 55.8709C10.6288 58.2069 2.81653 65.0953 2.46029 65.4136C1.88069 65.9315 1.88028 66.7491 2.46029 67.2671C2.93139 67.6878 14.1602 77.5754 28.326 77.5754C28.5924 77.5754 28.8606 77.5717 29.1304 77.5643C26.6728 82.7775 26.7598 87.8226 26.7655 88.0626C26.7827 88.7804 27.4575 89.3589 28.2949 89.3735C28.7938 89.3826 40.4596 89.5141 47.9213 83.3543L47.6408 88.4469C47.6206 88.8125 47.776 89.1693 48.0708 89.4339C48.3654 89.6985 48.7738 89.8486 49.2009 89.8486H56.6389C57.066 89.8486 57.4742 89.6987 57.769 89.4339C58.0639 89.1691 58.2191 88.8125 58.1988 88.4469L57.9189 83.3645C65.3817 89.5143 77.0343 89.3823 77.5331 89.3733C78.3704 89.3588 79.0452 88.7802 79.0622 88.0625C79.068 87.8234 79.1548 82.7847 76.7014 77.5743C90.7724 77.4752 101.894 67.6858 102.363 67.267C102.943 66.7494 102.943 65.9315 102.363 65.4136ZM76.485 74.8985C75.7984 74.8985 75.0822 74.8697 74.3568 74.813C73.7866 74.7673 73.2347 74.9942 72.9165 75.4018C72.5986 75.8093 72.5658 76.3333 72.8316 76.7676C75.1082 80.4902 75.7191 84.581 75.8815 86.6494C72.5844 86.4611 64.8848 85.5547 59.853 81.2418C58.9727 80.4871 58.1656 79.6175 57.4535 78.6576C57.0736 78.1455 56.34 77.9164 55.6638 78.0996C54.9888 78.2829 54.5418 78.8324 54.5754 79.4389L55.0012 87.1722H50.8376L51.2646 79.4208C51.2982 78.8143 50.8509 78.2643 50.1755 78.0813C49.4998 77.8985 48.7652 78.128 48.3859 78.6409C47.6699 79.6089 46.8586 80.4837 45.9743 81.2416C40.9579 85.5416 33.2431 86.4548 29.9434 86.6473C30.1045 84.5645 30.7212 80.4323 33.055 76.6704C33.3299 76.2275 33.2927 75.6898 32.9583 75.2777C32.6244 74.8659 32.0493 74.6488 31.4693 74.7151C30.4055 74.8371 29.3478 74.8987 28.3256 74.8987C17.9351 74.8987 8.94115 68.7256 5.85356 66.3395C8.59352 64.2167 15.9854 59.1079 24.9067 57.9993C25.5115 57.9241 26.0094 57.5534 26.1812 57.0508C26.353 56.5482 26.1671 56.006 25.7052 55.6629C25.063 55.1858 24.449 54.6969 23.8802 54.2092C14.9386 46.5452 12.2462 35.6199 11.5237 31.5156C16.3126 32.1353 29.0583 34.4429 37.9997 42.1071C38.7568 42.7561 39.5041 43.461 40.2205 44.2021C40.6907 44.689 41.4939 44.827 42.1472 44.5343C42.8003 44.2412 43.1256 43.5966 42.9274 42.988C41.6077 38.9376 40.7878 34.0107 40.7878 30.1302C40.7878 17.755 49.0257 7.1051 52.1534 3.5085C55.2817 7.10615 63.519 17.7559 63.519 30.1302C63.519 34 62.705 38.9108 61.3947 42.9468C61.1973 43.5549 61.5222 44.1987 62.1747 44.4914C62.8266 44.7847 63.6294 44.6467 64.1002 44.1614C64.8047 43.4352 65.5385 42.7439 66.2819 42.1069C75.2233 34.4427 87.9694 32.1349 92.7579 31.5154C92.035 35.6202 89.3428 46.5452 80.4012 54.209C79.8527 54.6793 79.2623 55.1508 78.6462 55.611C78.1823 55.9572 77.999 56.5049 78.178 57.0096C78.3569 57.5141 78.8649 57.8816 79.475 57.9483C88.5695 58.9398 96.1758 64.1831 98.9675 66.3406C95.8756 68.7281 86.8788 74.8985 76.485 74.8985Z" fill="#BADAD7"/>
<path d="M78.3774 65.081H56.5986L79.6901 45.2882C80.3 44.7653 80.3 43.9178 79.6901 43.3951C79.08 42.8725 78.0914 42.8725 77.4815 43.3951L54.3899 63.1877V22.5539C54.3899 21.8144 53.6907 21.2153 52.8282 21.2153C51.9656 21.2153 51.2665 21.8144 51.2665 22.5539V63.2252L28.1309 43.3951C27.521 42.8725 26.5321 42.8725 25.9224 43.3951C25.3125 43.918 25.3125 44.7654 25.9224 45.2882L49.014 65.081H24.5812C23.7187 65.081 23.0195 65.6801 23.0195 66.4196C23.0195 67.1591 23.7187 67.7582 24.5812 67.7582H49.0576L42.017 73.793C41.4071 74.316 41.4071 75.1634 42.017 75.6862C42.3218 75.9475 42.7217 76.078 43.1211 76.078C43.5206 76.078 43.9204 75.9475 44.2253 75.6862L51.2659 69.6514V73.2422C51.2659 73.9817 51.965 74.5808 52.8276 74.5808C53.6901 74.5808 54.3893 73.9817 54.3893 73.2422V69.6889L61.1992 75.5259C61.5042 75.7872 61.9041 75.9178 62.3035 75.9178C62.7029 75.9178 63.1028 75.7871 63.4078 75.5259C64.0177 75.003 64.0177 74.1556 63.4078 73.6328L56.5539 67.758H78.3768C79.2395 67.758 79.9385 67.1589 79.9385 66.4194C79.9385 65.6799 79.2399 65.081 78.3774 65.081Z" fill="#BADAD7"/>
</g>
<g clip-path="url(#clip1_168_327)">
<path d="M53.0357 107.736C53.3053 107.743 53.5734 107.695 53.8244 107.597C54.0755 107.498 54.3045 107.351 54.4981 107.163C54.6288 107.044 54.7336 106.9 54.806 106.739C54.8785 106.578 54.917 106.404 54.9193 106.227C54.9193 106.032 54.9969 105.844 55.1351 105.706C55.2734 105.568 55.4608 105.49 55.6563 105.49C55.7526 105.49 55.8478 105.509 55.9366 105.547C56.0254 105.584 56.1059 105.638 56.1734 105.707C56.2409 105.775 56.2941 105.857 56.3298 105.946C56.3656 106.035 56.3832 106.131 56.3817 106.227C56.381 106.598 56.305 106.964 56.1582 107.304C56.0113 107.644 55.7968 107.95 55.5276 108.204C54.8615 108.853 53.9653 109.21 53.0357 109.199C52.9319 109.212 52.8265 109.203 52.7265 109.172C52.6265 109.141 52.5342 109.09 52.4557 109.021C52.3773 108.951 52.3144 108.866 52.2713 108.771C52.2283 108.676 52.206 108.572 52.206 108.468C52.206 108.363 52.2283 108.26 52.2713 108.164C52.3144 108.069 52.3773 107.984 52.4557 107.915C52.5342 107.846 52.6265 107.794 52.7265 107.763C52.8265 107.732 52.9319 107.723 53.0357 107.736Z" fill="#BADAD7"/>
<path d="M53.0356 93.3423C52.7415 93.3423 52.3729 93.4206 52.0444 93.6792C51.7131 93.94 51.4477 94.3645 51.3276 95.0083L51.2388 95.4224C50.75 97.462 49.6213 98.999 48.5513 100.569C47.4171 102.233 46.3511 103.933 46.3511 106.25V106.258C46.4051 107.98 47.1399 109.611 48.394 110.792C49.6466 111.972 51.3158 112.608 53.0356 112.561C54.7555 112.608 56.4246 111.972 57.6772 110.792C58.9314 109.611 59.6662 107.98 59.7202 106.258V106.25C59.7201 103.933 58.6541 102.233 57.52 100.569C56.3788 98.8945 55.1708 97.2576 54.7436 95.0083C54.6236 94.3645 54.3582 93.94 54.0268 93.6792C53.6983 93.4207 53.3297 93.3423 53.0356 93.3423ZM53.0376 96.2896C53.586 98.1146 54.4699 99.8242 55.6499 101.328L56.0747 101.946C57.0339 103.362 57.7553 104.625 57.7583 106.241L57.7436 106.465C57.6424 107.583 57.1302 108.627 56.3022 109.393C55.4189 110.21 54.2476 110.643 53.0454 110.598H53.0278C51.8274 110.637 50.6596 110.2 49.7807 109.381C48.9043 108.565 48.386 107.435 48.3374 106.239C48.3375 104.391 49.265 103.004 50.437 101.328L50.6889 100.996C51.7389 99.5735 52.5327 97.9808 53.0376 96.2896Z" fill="#BADAD7" stroke="#BADAD7" stroke-width="0.5"/>
</g>
<path d="M39.7389 95.6147C39.7389 97.2545 38.5538 98.5839 37.0919 98.5839C35.63 98.5839 36.3829 98.2013 36.3829 96.5615C36.3829 94.9216 37.568 93.5923 39.0299 93.5923C40.4919 93.5923 39.7389 93.9748 39.7389 95.6147Z" fill="#BADAD7"/>
<path d="M62.5888 95.6147C62.5888 97.2545 63.7739 98.5839 65.2358 98.5839C66.6977 98.5839 65.9447 98.2013 65.9447 96.5615C65.9447 94.9216 64.7596 93.5923 63.2977 93.5923C61.8358 93.5923 62.5888 93.9748 62.5888 95.6147Z" fill="#BADAD7"/>
<path d="M177.351 76.4019C174.975 76.4019 172.628 75.8927 170.308 74.8744C168.045 73.7996 166.065 72.6399 164.368 71.3953C161.992 69.585 160.578 68.6799 160.125 68.6799C158.994 68.6799 158.259 69.8961 157.919 72.3287L157.58 75.723H155.628L155.034 48.9081H157.071C157.41 53.0944 158.57 57.111 160.55 60.9579C162.586 64.7481 165.104 67.8313 168.102 70.2073C171.1 72.5267 174.183 73.6864 177.351 73.6864C181.99 73.6864 185.356 72.555 187.449 70.2921C189.599 68.0293 190.674 65.3139 190.674 62.1459C190.674 59.3739 189.854 57.1959 188.213 55.6119C186.629 54.0279 184.281 52.6136 181.17 51.369L168.272 46.1927C163.803 44.3824 160.493 42.063 158.343 39.2344C156.25 36.3493 155.204 32.8984 155.204 28.8819C155.204 23.451 156.788 19.4344 159.956 16.8321C163.124 14.2299 167.084 12.9287 171.836 12.9287C175.569 12.9287 179.699 14.6259 184.225 18.0201C184.791 18.4161 185.356 18.7839 185.922 19.1233C186.488 19.4061 186.997 19.5476 187.449 19.5476C188.411 19.5476 188.977 18.8687 189.147 17.511L189.486 14.4561H191.523L192.371 36.519H190.335C189.429 32.4459 187.987 28.8253 186.007 25.6573C184.083 22.4893 181.821 20.0284 179.218 18.2747C176.616 16.521 173.929 15.6441 171.157 15.6441C167.989 15.6441 165.387 16.6907 163.35 18.7839C161.313 20.8204 160.295 23.6773 160.295 27.3544C160.295 29.9001 160.946 31.8801 162.247 33.2944C163.548 34.7087 165.471 35.925 168.017 36.9433L184.395 43.4773C188.185 45.0047 191.013 47.1827 192.88 50.0113C194.804 52.8399 195.765 55.8099 195.765 58.9213C195.765 61.9196 195.087 64.7481 193.729 67.407C192.428 70.0659 190.391 72.2439 187.619 73.941C184.904 75.5816 181.481 76.4019 177.351 76.4019Z" fill="white"/>
<path d="M217.584 23.7056H217.244V65.3704C217.244 67.4636 217.725 69.1324 218.687 70.377C219.705 71.565 221.006 72.159 222.59 72.159H225.645V74.8744H205.449V72.159H208.504C210.144 72.159 211.446 71.565 212.407 70.377C213.369 69.1324 213.85 67.4636 213.85 65.3704V19.4627C213.793 18.6707 213.595 18.105 213.256 17.7656C212.916 17.3696 212.351 17.1716 211.559 17.1716H205.449V14.4561H221.487L250.932 61.8064V23.9601C250.932 21.867 250.452 20.2264 249.49 19.0384C248.528 17.7939 247.255 17.1716 245.671 17.1716H242.616V14.4561H262.812V17.1716H259.758C258.174 17.1716 256.872 17.7939 255.854 19.0384C254.836 20.2264 254.327 21.867 254.327 23.9601V76.4019H250.932L217.584 23.7056Z" fill="white"/>
<path d="M145.226 100.071C143.868 100.071 142.69 99.7719 141.692 99.1729C140.707 98.5606 139.942 97.7154 139.396 96.6372C138.864 95.5457 138.597 94.2811 138.597 92.8436C138.597 91.406 138.864 90.1481 139.396 89.0699C139.942 87.9784 140.707 87.1332 141.692 86.5342C142.69 85.9219 143.868 85.6157 145.226 85.6157C146.837 85.6157 148.135 85.9951 149.12 86.7538C150.118 87.5125 150.757 88.5841 151.036 89.9684H149.199C148.986 89.1032 148.554 88.411 147.902 87.8919C147.249 87.3595 146.358 87.0932 145.226 87.0932C144.241 87.0932 143.376 87.3262 142.63 87.7921C141.898 88.2446 141.326 88.9035 140.913 89.7687C140.514 90.6206 140.314 91.6456 140.314 92.8436C140.314 94.0415 140.514 95.0731 140.913 95.9383C141.326 96.7902 141.898 97.4491 142.63 97.915C143.376 98.3676 144.241 98.5939 145.226 98.5939C146.358 98.5939 147.249 98.341 147.902 97.8352C148.554 97.316 148.986 96.6305 149.199 95.7786H151.036C150.757 97.123 150.118 98.1746 149.12 98.9333C148.135 99.692 146.837 100.071 145.226 100.071Z" fill="white"/>
<path d="M153.488 99.8318V85.8553H158.399C159.384 85.8553 160.196 86.015 160.835 86.3345C161.488 86.6407 161.973 87.0666 162.293 87.6124C162.612 88.1448 162.772 88.7438 162.772 89.4093C162.772 90.1281 162.612 90.7271 162.293 91.2063C161.987 91.6855 161.581 92.0516 161.075 92.3045C160.582 92.5574 160.057 92.7104 159.498 92.7637L159.777 92.564C160.376 92.5773 160.928 92.7371 161.434 93.0432C161.94 93.3494 162.339 93.762 162.632 94.2811C162.938 94.8003 163.092 95.3793 163.092 96.0182C163.092 96.7237 162.918 97.3693 162.572 97.955C162.226 98.5273 161.714 98.9865 161.035 99.3326C160.369 99.6654 159.544 99.8318 158.559 99.8318H153.488ZM155.165 98.4341H158.379C159.325 98.4341 160.057 98.2145 160.576 97.7753C161.108 97.3227 161.374 96.6971 161.374 95.8984C161.374 95.1131 161.102 94.4875 160.556 94.0216C160.023 93.5424 159.285 93.3028 158.34 93.3028H155.165V98.4341ZM155.165 91.965H158.28C159.185 91.965 159.87 91.7521 160.336 91.3261C160.815 90.9002 161.055 90.3211 161.055 89.589C161.055 88.8836 160.815 88.3178 160.336 87.8919C159.87 87.4659 159.165 87.253 158.22 87.253H155.165V91.965Z" fill="white"/>
<path d="M165.518 99.8318V85.8553H169.671C171.295 85.8553 172.64 86.1415 173.704 86.7139C174.769 87.2729 175.555 88.0782 176.06 89.1298C176.58 90.1681 176.839 91.4193 176.839 92.8835C176.839 94.3211 176.58 95.559 176.06 96.5972C175.555 97.6355 174.769 98.4341 173.704 98.9932C172.64 99.5523 171.295 99.8318 169.671 99.8318H165.518ZM167.195 98.4341H169.631C170.976 98.4341 172.047 98.2145 172.846 97.7753C173.658 97.3227 174.237 96.6838 174.583 95.8585C174.929 95.0199 175.102 94.0282 175.102 92.8835C175.102 91.7121 174.929 90.7072 174.583 89.8686C174.237 89.03 173.658 88.3844 172.846 87.9318C172.047 87.4793 170.976 87.253 169.631 87.253H167.195V98.4341Z" fill="white"/>
<path d="M184.607 99.8318V85.8553H189.179C190.271 85.8553 191.169 86.0417 191.875 86.4144C192.58 86.7738 193.106 87.2596 193.452 87.8719C193.798 88.4842 193.971 89.1764 193.971 89.9484C193.971 90.7205 193.798 91.4193 193.452 92.0449C193.12 92.6572 192.6 93.1497 191.895 93.5224C191.189 93.8818 190.284 94.0615 189.179 94.0615H186.284V99.8318H184.607ZM186.284 92.6439H189.14C190.258 92.6439 191.056 92.4043 191.536 91.9251C192.015 91.4326 192.254 90.7737 192.254 89.9484C192.254 89.0965 192.015 88.4376 191.536 87.9718C191.056 87.4926 190.258 87.253 189.14 87.253H186.284V92.6439Z" fill="white"/>
<path d="M196.189 99.8318V85.8553H200.702C201.793 85.8553 202.685 86.0417 203.377 86.4144C204.069 86.7738 204.582 87.2596 204.915 87.8719C205.247 88.4842 205.414 89.1764 205.414 89.9484C205.414 90.6938 205.241 91.3794 204.895 92.005C204.562 92.6306 204.043 93.1297 203.337 93.5024C202.632 93.8752 201.727 94.0615 200.622 94.0615H197.866V99.8318H196.189ZM203.577 99.8318L200.502 93.5823H202.379L205.553 99.8318H203.577ZM197.866 92.7437H200.582C201.647 92.7437 202.425 92.4842 202.918 91.965C203.424 91.4459 203.677 90.7804 203.677 89.9684C203.677 89.1431 203.43 88.4909 202.938 88.0117C202.459 87.5192 201.667 87.2729 200.562 87.2729H197.866V92.7437Z" fill="white"/>
<path d="M214.294 100.071C212.949 100.071 211.765 99.7719 210.74 99.1729C209.728 98.5606 208.929 97.7154 208.344 96.6372C207.771 95.5457 207.485 94.2811 207.485 92.8436C207.485 91.4193 207.771 90.1681 208.344 89.0899C208.929 87.9984 209.728 87.1465 210.74 86.5342C211.765 85.9219 212.949 85.6157 214.294 85.6157C215.665 85.6157 216.856 85.9219 217.868 86.5342C218.893 87.1465 219.685 87.9984 220.244 89.0899C220.816 90.1681 221.102 91.4193 221.102 92.8436C221.102 94.2811 220.816 95.5457 220.244 96.6372C219.685 97.7154 218.893 98.5606 217.868 99.1729C216.856 99.7719 215.665 100.071 214.294 100.071ZM214.294 98.5939C215.305 98.5939 216.191 98.3676 216.949 97.915C217.721 97.4491 218.32 96.7902 218.746 95.9383C219.172 95.0731 219.385 94.0415 219.385 92.8436C219.385 91.6456 219.172 90.6206 218.746 89.7687C218.32 88.9035 217.721 88.2446 216.949 87.7921C216.191 87.3395 215.305 87.1132 214.294 87.1132C213.282 87.1132 212.397 87.3395 211.638 87.7921C210.88 88.2446 210.281 88.9035 209.841 89.7687C209.415 90.6206 209.202 91.6456 209.202 92.8436C209.202 94.0415 209.415 95.0731 209.841 95.9383C210.281 96.7902 210.88 97.4491 211.638 97.915C212.397 98.3676 213.282 98.5939 214.294 98.5939Z" fill="white"/>
<path d="M223.546 99.8318V85.8553H227.699C229.322 85.8553 230.667 86.1415 231.732 86.7139C232.797 87.2729 233.582 88.0782 234.088 89.1298C234.607 90.1681 234.866 91.4193 234.866 92.8835C234.866 94.3211 234.607 95.559 234.088 96.5972C233.582 97.6355 232.797 98.4341 231.732 98.9932C230.667 99.5523 229.322 99.8318 227.699 99.8318H223.546ZM225.223 98.4341H227.659C229.003 98.4341 230.075 98.2145 230.873 97.7753C231.685 97.3227 232.264 96.6838 232.61 95.8585C232.956 95.0199 233.129 94.0282 233.129 92.8835C233.129 91.7121 232.956 90.7072 232.61 89.8686C232.264 89.03 231.685 88.3844 230.873 87.9318C230.075 87.4793 229.003 87.253 227.659 87.253H225.223V98.4341Z" fill="white"/>
<path d="M242.362 100.071C241.404 100.071 240.532 99.8784 239.747 99.4924C238.975 99.1063 238.356 98.5207 237.89 97.7353C237.424 96.9367 237.191 95.9184 237.191 94.6805V85.8553H238.868V94.7004C238.868 95.6056 239.015 96.3443 239.308 96.9167C239.614 97.4891 240.033 97.9084 240.565 98.1746C241.098 98.4408 241.71 98.5739 242.402 98.5739C243.108 98.5739 243.72 98.4408 244.239 98.1746C244.758 97.9084 245.164 97.4891 245.457 96.9167C245.75 96.3443 245.896 95.6056 245.896 94.7004V85.8553H247.574V94.6805C247.574 95.9184 247.341 96.9367 246.875 97.7353C246.409 98.5207 245.783 99.1063 244.998 99.4924C244.213 99.8784 243.334 100.071 242.362 100.071Z" fill="white"/>
<path d="M256.504 100.071C255.146 100.071 253.968 99.7719 252.97 99.1729C251.985 98.5606 251.219 97.7154 250.673 96.6372C250.141 95.5457 249.875 94.2811 249.875 92.8436C249.875 91.406 250.141 90.1481 250.673 89.0699C251.219 87.9784 251.985 87.1332 252.97 86.5342C253.968 85.9219 255.146 85.6157 256.504 85.6157C258.114 85.6157 259.412 85.9951 260.397 86.7538C261.395 87.5125 262.034 88.5841 262.314 89.9684H260.477C260.264 89.1032 259.831 88.411 259.179 87.8919C258.527 87.3595 257.635 87.0932 256.504 87.0932C255.519 87.0932 254.653 87.3262 253.908 87.7921C253.176 88.2446 252.604 88.9035 252.191 89.7687C251.792 90.6206 251.592 91.6456 251.592 92.8436C251.592 94.0415 251.792 95.0731 252.191 95.9383C252.604 96.7902 253.176 97.4491 253.908 97.915C254.653 98.3676 255.519 98.5939 256.504 98.5939C257.635 98.5939 258.527 98.341 259.179 97.8352C259.831 97.316 260.264 96.6305 260.477 95.7786H262.314C262.034 97.123 261.395 98.1746 260.397 98.9333C259.412 99.692 258.114 100.071 256.504 100.071Z" fill="white"/>
<path d="M267.688 99.8318V87.233H263.515V85.8553H273.538V87.233H269.365V99.8318H267.688Z" fill="white"/>
<path d="M279.747 100.071C278.722 100.071 277.83 99.885 277.071 99.5123C276.313 99.1396 275.727 98.6205 275.314 97.955C274.902 97.2894 274.695 96.5174 274.695 95.6388H276.452C276.452 96.1846 276.579 96.6904 276.832 97.1563C277.085 97.6089 277.451 97.9749 277.93 98.2544C278.422 98.5207 279.028 98.6538 279.747 98.6538C280.372 98.6538 280.905 98.5539 281.344 98.3543C281.797 98.1413 282.136 97.8551 282.362 97.4957C282.602 97.1363 282.722 96.7303 282.722 96.2778C282.722 95.732 282.602 95.2928 282.362 94.96C282.123 94.6139 281.803 94.3344 281.404 94.1214C281.005 93.9084 280.545 93.7221 280.026 93.5623C279.507 93.3893 278.955 93.2029 278.369 93.0033C277.278 92.6306 276.472 92.1714 275.953 91.6256C275.434 91.0665 275.175 90.3411 275.175 89.4493C275.175 88.6905 275.348 88.025 275.694 87.4526C276.053 86.8803 276.559 86.4343 277.211 86.1149C277.877 85.7821 278.662 85.6157 279.567 85.6157C280.459 85.6157 281.231 85.7821 281.883 86.1149C282.549 86.4477 283.068 86.9069 283.441 87.4926C283.813 88.0649 284 88.7305 284 89.4892H282.243C282.243 89.1032 282.143 88.7238 281.943 88.3511C281.743 87.9784 281.437 87.6723 281.025 87.4327C280.625 87.1798 280.12 87.0533 279.507 87.0533C279.001 87.04 278.549 87.1265 278.15 87.3129C277.764 87.4859 277.457 87.7388 277.231 88.0716C277.018 88.4044 276.912 88.8103 276.912 89.2895C276.912 89.7421 277.005 90.1082 277.191 90.3877C277.391 90.6672 277.67 90.9068 278.03 91.1065C278.402 91.2928 278.835 91.4659 279.328 91.6256C279.82 91.7853 280.366 91.965 280.965 92.1647C281.644 92.391 282.243 92.6705 282.762 93.0033C283.294 93.3227 283.707 93.7354 284 94.2412C284.306 94.747 284.459 95.3926 284.459 96.1779C284.459 96.8435 284.279 97.4758 283.92 98.0747C283.574 98.6604 283.055 99.1396 282.362 99.5123C281.67 99.885 280.798 100.071 279.747 100.071Z" fill="white"/>
<line x1="120.298" y1="1.24805" x2="120.298" y2="111.063" stroke="#BADAD7"/>
<defs>
<clipPath id="clip0_168_327">
<rect width="104.824" height="89.8487" fill="white"/>
</clipPath>
<clipPath id="clip1_168_327">
<rect width="18.7185" height="18.7185" fill="white" transform="matrix(-1 0 0 1 62.395 93.5923)"/>
</clipPath>
</defs>
</svg>
