<svg width="280" height="301" viewBox="0 0 280 301" fill="none" xmlns="http://www.w3.org/2000/svg">
<g opacity="0.1" clip-path="url(#clip0_168_310)">
<path d="M273.428 175.312C272.45 174.437 251.031 155.501 221.654 149.493C252.766 121.981 256.581 82.2984 256.73 80.6048C256.822 79.562 256.379 78.5373 255.52 77.7981C254.66 77.0597 253.469 76.6777 252.256 76.7577C250.353 76.8808 207.134 79.9553 175.356 104.357C177.045 96.2451 178.012 87.8806 178.012 80.7493C178.012 57.9963 168.358 37.6036 160.258 24.5024C151.508 10.3498 142.837 1.61318 142.472 1.24869C141.681 0.455734 140.525 0 139.31 0C138.095 0 136.939 0.455734 136.146 1.24915C135.781 1.61412 127.111 10.3507 118.361 24.5034C110.262 37.6046 100.607 57.9973 100.607 80.7503C100.607 87.8984 101.581 96.2866 103.281 104.422C71.4954 79.961 28.2019 76.8818 26.2966 76.7577C25.0853 76.6767 23.892 77.059 23.0329 77.7981C22.1737 78.5373 21.7313 79.562 21.8232 80.6048C21.9725 82.3031 25.8094 122.217 57.1767 149.737C28.3912 155.998 7.52342 174.459 6.57185 175.312C5.02362 176.7 5.02255 178.892 6.57185 180.28C7.83022 181.407 37.8244 207.907 75.6634 207.907C76.3747 207.907 77.091 207.897 77.812 207.877C71.247 221.849 71.4797 235.37 71.495 236.013C71.5407 237.937 73.3434 239.487 75.58 239.526C76.9127 239.551 108.074 239.903 128.005 223.395L127.256 237.043C127.202 238.023 127.617 238.979 128.405 239.688C129.192 240.397 130.283 240.8 131.423 240.8H151.291C152.432 240.8 153.523 240.398 154.31 239.688C155.098 238.979 155.512 238.023 155.458 237.043L154.71 223.422C174.645 239.904 205.771 239.55 207.103 239.526C209.34 239.487 211.142 237.936 211.188 236.013C211.203 235.372 211.435 221.868 204.881 207.904C242.467 207.638 272.176 181.402 273.428 180.28C274.977 178.893 274.977 176.7 273.428 175.312ZM204.303 200.733C202.469 200.733 200.556 200.655 198.619 200.503C197.096 200.381 195.621 200.989 194.771 202.081C193.922 203.173 193.835 204.578 194.544 205.742C200.626 215.719 202.258 226.682 202.691 232.226C193.884 231.721 173.317 229.292 159.877 217.733C157.525 215.71 155.369 213.38 153.467 210.807C152.452 209.435 150.493 208.82 148.687 209.311C146.884 209.803 145.69 211.276 145.779 212.901L146.917 233.627H135.795L136.936 212.852C137.026 211.227 135.831 209.753 134.026 209.263C132.222 208.773 130.26 209.388 129.246 210.763C127.334 213.357 125.166 215.701 122.805 217.732C109.405 229.257 88.7977 231.704 79.9837 232.22C80.414 226.638 82.061 215.564 88.295 205.481C89.0294 204.294 88.93 202.853 88.0367 201.749C87.145 200.645 85.6087 200.063 84.0594 200.241C81.2177 200.568 78.3927 200.733 75.662 200.733C47.9077 200.733 23.8833 184.189 15.6358 177.794C22.9547 172.104 42.6997 158.413 66.5297 155.442C68.1454 155.24 69.4754 154.247 69.934 152.9C70.393 151.553 69.8964 150.099 68.6627 149.18C66.947 147.901 65.307 146.591 63.7877 145.284C39.9034 124.744 32.7115 95.4635 30.7816 84.4636C43.5737 86.1245 77.6194 92.309 101.503 112.85C103.525 114.589 105.522 116.478 107.435 118.464C108.691 119.769 110.837 120.139 112.582 119.355C114.326 118.569 115.195 116.842 114.666 115.21C111.141 104.355 108.951 91.1508 108.951 80.7506C108.951 47.5844 130.955 19.0421 139.31 9.40301C147.666 19.0449 169.669 47.5868 169.669 80.7506C169.669 91.1221 167.495 104.283 163.995 115.1C163.468 116.73 164.335 118.455 166.078 119.24C167.82 120.026 169.964 119.656 171.222 118.355C173.104 116.409 175.064 114.556 177.049 112.849C200.933 92.3087 234.98 86.1235 247.771 84.4633C245.84 95.4645 238.648 124.744 214.764 145.283C213.299 146.544 211.722 147.808 210.076 149.041C208.837 149.969 208.348 151.436 208.826 152.789C209.304 154.141 210.66 155.126 212.29 155.305C236.583 157.962 256.9 172.014 264.358 177.797C256.099 184.195 232.067 200.733 204.303 200.733Z" fill="white"/>
<path d="M209.358 174.42H151.184L212.865 121.374C214.494 119.973 214.494 117.702 212.865 116.301C211.235 114.9 208.594 114.9 206.965 116.301L145.284 169.346V60.445C145.284 58.4631 143.416 56.8574 141.112 56.8574C138.808 56.8574 136.941 58.4631 136.941 60.445V169.446L75.142 116.301C73.5127 114.9 70.8713 114.9 69.2426 116.301C67.6136 117.702 67.6136 119.973 69.2426 121.374L130.924 174.42H65.6603C63.3563 174.42 61.4886 176.026 61.4886 178.008C61.4886 179.989 63.3563 181.595 65.6603 181.595H131.04L112.234 197.769C110.605 199.171 110.605 201.441 112.234 202.843C113.048 203.543 114.116 203.893 115.183 203.893C116.25 203.893 117.318 203.543 118.133 202.843L136.939 186.669V196.293C136.939 198.275 138.807 199.88 141.111 199.88C143.415 199.88 145.282 198.275 145.282 196.293V186.77L163.472 202.413C164.287 203.114 165.355 203.463 166.422 203.463C167.489 203.463 168.557 203.113 169.372 202.413C171.001 201.012 171.001 198.74 169.372 197.339L151.064 181.595H209.357C211.661 181.595 213.528 179.989 213.528 178.007C213.528 176.025 211.662 174.42 209.358 174.42Z" fill="white"/>
<mask id="mask0_168_310" style="mask-type:luminance" maskUnits="userSpaceOnUse" x="116" y="250" width="51" height="51">
<path d="M116.667 250.833H166.667V301H116.667V250.833Z" fill="white"/>
</mask>
<g mask="url(#mask0_168_310)">
<path d="M141.667 288.741C142.387 288.757 143.103 288.629 143.773 288.366C144.444 288.102 145.056 287.707 145.573 287.204C145.922 286.886 146.202 286.499 146.395 286.067C146.589 285.636 146.692 285.169 146.698 284.696C146.698 284.172 146.905 283.67 147.275 283.299C147.644 282.929 148.145 282.721 148.667 282.721C148.924 282.721 149.178 282.772 149.415 282.872C149.653 282.971 149.868 283.117 150.048 283.301C150.228 283.485 150.37 283.703 150.466 283.942C150.561 284.182 150.608 284.438 150.604 284.696C150.603 285.688 150.399 286.67 150.007 287.581C149.615 288.492 149.042 289.313 148.323 289.995C146.543 291.733 144.15 292.691 141.667 292.66C141.389 292.695 141.108 292.671 140.841 292.588C140.574 292.506 140.327 292.368 140.117 292.182C139.908 291.997 139.74 291.769 139.625 291.513C139.51 291.258 139.45 290.98 139.45 290.7C139.45 290.42 139.51 290.143 139.625 289.887C139.74 289.632 139.908 289.404 140.117 289.218C140.327 289.033 140.574 288.895 140.841 288.812C141.108 288.73 141.389 288.705 141.667 288.741Z" fill="white"/>
<path d="M141.667 249.998C140.853 249.998 139.829 250.217 138.916 250.938C137.994 251.666 137.267 252.841 136.94 254.596L136.706 255.7C135.409 261.13 132.414 265.223 129.551 269.437C126.521 273.897 123.646 278.491 123.646 284.758V284.784C123.792 289.444 125.774 293.855 129.157 297.052C132.534 300.242 137.031 301.963 141.667 301.836C146.303 301.963 150.8 300.242 154.176 297.052C157.559 293.855 159.542 289.444 159.687 284.784V284.758C159.687 278.491 156.813 273.897 153.783 269.437C150.729 264.942 147.526 260.584 146.393 254.596C146.067 252.841 145.339 251.666 144.417 250.938C143.504 250.217 142.481 249.998 141.667 249.998ZM141.67 258.633C143.154 263.361 145.477 267.791 148.542 271.701C151.638 276.189 154.103 279.853 154.115 284.726L154.076 285.32C153.809 288.275 152.462 291.037 150.28 293.061C147.953 295.22 144.867 296.364 141.699 296.245H141.641C138.478 296.348 135.402 295.192 133.086 293.028C130.771 290.864 129.403 287.869 129.281 284.696C129.291 279.808 131.743 276.133 134.88 271.632V271.629C137.906 267.733 140.204 263.331 141.67 258.633Z" fill="white" stroke="white" stroke-width="0.5"/>
</g>
<path d="M106.149 256.253C106.149 260.648 102.983 264.211 99.0783 264.211C95.1733 264.211 97.1846 263.186 97.1846 258.791C97.1846 254.396 100.35 250.833 104.255 250.833C108.16 250.833 106.149 251.859 106.149 256.253Z" fill="white"/>
<path d="M167.185 256.253C167.185 260.648 170.35 264.211 174.255 264.211C178.16 264.211 176.149 263.186 176.149 258.791C176.149 254.396 172.983 250.833 169.078 250.833C165.173 250.833 167.185 251.859 167.185 256.253Z" fill="white"/>
</g>
<defs>
<clipPath id="clip0_168_310">
<rect width="280" height="301" fill="white"/>
</clipPath>
</defs>
</svg>
